<?xml version="1.0" encoding="UTF-8" standalone="no"?>
<!-- Created with Inkscape (http://www.inkscape.org/) -->

<svg
   width="184.52467mm"
   height="77.476173mm"
   viewBox="0 0 184.52467 77.476174"
   version="1.1"
   id="svg1"
   xml:space="preserve"
   sodipodi:docname="Facilitajsem.svg"
   inkscape:version="1.4.2 (f4327f4, 2025-05-13)"
   inkscape:export-filename="Facilitajs.png"
   inkscape:export-xdpi="96"
   inkscape:export-ydpi="96"
   xmlns:inkscape="http://www.inkscape.org/namespaces/inkscape"
   xmlns:sodipodi="http://sodipodi.sourceforge.net/DTD/sodipodi-0.dtd"
   xmlns="http://www.w3.org/2000/svg"
   xmlns:svg="http://www.w3.org/2000/svg"><sodipodi:namedview
     id="namedview1"
     pagecolor="#ffffff"
     bordercolor="#000000"
     borderopacity="0.25"
     inkscape:showpageshadow="2"
     inkscape:pageopacity="0.0"
     inkscape:pagecheckerboard="false"
     inkscape:deskcolor="#d1d1d1"
     inkscape:document-units="mm"
     inkscape:zoom="0.56972423"
     inkscape:cx="216.77154"
     inkscape:cy="697.70597"
     inkscape:window-width="1920"
     inkscape:window-height="991"
     inkscape:window-x="-9"
     inkscape:window-y="-9"
     inkscape:window-maximized="1"
     inkscape:current-layer="layer1"
     inkscape:export-bgcolor="#fcfcfc00"><inkscape:page
       x="0"
       y="0"
       width="184.52467"
       height="77.476173"
       id="page1"
       margin="0"
       bleed="0" /></sodipodi:namedview><defs
     id="defs1" /><g
     inkscape:label="Camada 1"
     inkscape:groupmode="layer"
     id="layer1"
     transform="translate(-205.80276,-95.969697)"><g
       id="g3"
       transform="translate(-6.9660896,-115.63708)"><g
         id="g10"
         transform="matrix(1.1421452,0,0,0.98845714,164.55961,130.72521)"
         style="stroke-width:0.941154"><g
           id="g8"
           style="stroke-width:0.941154"
           transform="translate(0.31673202,-2.1958704)"
           sodipodi:insensitive="true" /><path
           style="fill:none;fill-opacity:1;stroke:#1752f0;stroke-width:0.18823;stroke-linecap:round;stroke-linejoin:round;stroke-dasharray:none;stroke-opacity:1;paint-order:markers stroke fill"
           d="m 192.52783,116.77423 -1.1934,1.53564 -0.58065,-1.29517 z"
           id="path3-7"
           sodipodi:nodetypes="cccc"
           sodipodi:insensitive="true" /><path
           style="fill:none;fill-opacity:1;stroke:#1752f0;stroke-width:0.18823;stroke-linecap:round;stroke-linejoin:round;stroke-dasharray:none;stroke-opacity:1;paint-order:markers stroke fill"
           d="m 192.24706,114.84871 -1.6002,0.89436 -0.12015,-1.45603 z"
           id="path3-6"
           sodipodi:nodetypes="cccc"
           sodipodi:insensitive="true" /><path
           style="fill:none;fill-opacity:1;stroke:#1752f0;stroke-width:0.18823;stroke-linecap:round;stroke-linejoin:round;stroke-dasharray:none;stroke-opacity:1;paint-order:markers stroke fill"
           d="m 192.34043,113.09608 -1.7731,0.0112 0.42107,-1.37719 z"
           id="path3-9"
           sodipodi:nodetypes="cccc"
           sodipodi:insensitive="true" /><path
           style="fill:none;fill-opacity:1;stroke:#1752f0;stroke-width:0.18823;stroke-linecap:round;stroke-linejoin:round;stroke-dasharray:none;stroke-opacity:1;paint-order:markers stroke fill"
           d="m 193.57717,111.87389 -1.20846,-1.51941 1.15017,-0.57076 z"
           id="path3-3"
           sodipodi:nodetypes="cccc"
           sodipodi:insensitive="true" /><path
           style="fill:none;fill-opacity:1;stroke:#1752f0;stroke-width:0.752923;stroke-linecap:round;stroke-linejoin:round;stroke-dasharray:none;stroke-opacity:1;paint-order:markers stroke fill"
           d="m 194.73216,127.21171 -0.16089,-13.52571 8.46196,9.49781 -3.46978,0.12754 1.74328,4.60826 c 0.0495,0.25844 0.19746,0.55142 -0.21903,0.74376 l -1.55504,0.87203 c -0.23688,0.0204 -0.48291,0.10122 -0.70088,-0.46167 0,0 -1.62076,-4.66781 -1.70837,-4.61652 -0.0877,0.0513 -2.3694,2.93408 -2.3694,2.93408 z"
           id="path2"
           sodipodi:nodetypes="ccccccccscc"
           sodipodi:insensitive="true" /><path
           style="fill:none;fill-opacity:1;stroke:#1752f0;stroke-width:0.18823;stroke-linecap:round;stroke-linejoin:round;stroke-dasharray:none;stroke-opacity:1;paint-order:markers stroke fill"
           d="m 195.15004,111.52258 -0.22423,-2.05965 1.21846,0.32242 z"
           id="path3"
           sodipodi:nodetypes="cccc"
           sodipodi:insensitive="true" /><path
           style="fill:none;fill-opacity:1;stroke:#1752f0;stroke-width:0.18823;stroke-linecap:round;stroke-linejoin:round;stroke-dasharray:none;stroke-opacity:1;paint-order:markers stroke fill"
           d="m 197.52532,114.03627 1.60373,-0.88566 0.11426,1.45668 z"
           id="path3-5"
           sodipodi:nodetypes="cccc"
           sodipodi:insensitive="true" /><path
           style="fill:none;fill-opacity:1;stroke:#1752f0;stroke-width:0.18823;stroke-linecap:round;stroke-linejoin:round;stroke-dasharray:none;stroke-opacity:1;paint-order:markers stroke fill"
           d="m 196.80258,112.43842 0.7493,-1.88182 0.88337,1.03427 z"
           id="path3-2"
           sodipodi:nodetypes="cccc"
           sodipodi:insensitive="true" /><g
           id="g2"><path
             id="rect1-21"
             style="fill:#1752f0;stroke:#1752f0;stroke-width:0.847038;stroke-linecap:round;stroke-linejoin:round;paint-order:markers stroke fill"
             d="m 76.164422,118.50517 h 12.228336 c 0.198798,0 0.358841,0.18078 0.358841,0.40533 v 27.03025 c 0,0.22455 -0.160043,0.40533 -0.358841,0.40533 H 76.164422 c -0.198798,0 -0.358842,-0.18078 -0.358842,-0.40533 V 118.9105 c 0,-0.22455 0.160044,-0.40533 0.358842,-0.40533 z" /><path
             id="rect1-2"
             style="fill:#1752f0;stroke:#1752f0;stroke-width:0.847032;stroke-linecap:round;stroke-linejoin:round;paint-order:markers stroke fill"
             d="m 63.129536,116.47495 h 12.512199 v 30.73764 H 63.129536 Z" /><path
             id="rect1"
             style="fill:#0f2c47;stroke:#0f2c47;stroke-width:0.847036;stroke-linecap:round;stroke-linejoin:round;paint-order:markers stroke fill"
             d="m 67.690738,103.39331 h 16.121454 c 0.674762,0 1.217982,0.61359 1.217982,1.37576 v 42.64694 c 0,0.76217 -0.54322,1.37575 -1.217982,1.37575 H 67.690738 c -0.674762,0 -1.217983,-0.61358 -1.217983,-1.37575 v -42.64694 c 0,-0.76217 0.543221,-1.37576 1.217983,-1.37576 z"
             sodipodi:nodetypes="sssssssss" /><path
             id="rect3-02-5"
             style="fill:#1752f0;stroke:#1752f0;stroke-width:0.37646;stroke-linecap:round;stroke-linejoin:round;paint-order:markers stroke fill"
             d="m 70.177657,141.97659 c 0.785195,0 1.417319,0.0431 1.417319,0.0967 v 3.25141 c 0,0.0536 -0.632124,0.0967 -1.417319,0.0967 -0.785195,0 -1.417319,-0.0431 -1.417319,-0.0967 v -3.25141 c 0,-0.0536 0.632124,-0.0967 1.417319,-0.0967 z" /><g
             id="g1"><g
               id="g6"
               transform="matrix(1.5544985,0,0,1.7794422,-32.582497,-74.12397)"
               style="fill:#1752f0;fill-opacity:1;stroke:#124ff0;stroke-width:0.565878;stroke-opacity:0.980392"><path
                 id="rect3-02"
                 style="stroke-width:0.226351;stroke-linecap:round;stroke-linejoin:round;paint-order:markers stroke fill"
                 d="m 73.415026,107.83829 c 0.505112,0 0.911754,0.0242 0.911754,0.0543 v 1.82721 c 0,0.0301 -0.406642,0.0543 -0.911754,0.0543 -0.505111,0 -0.911753,-0.0242 -0.911753,-0.0543 v -1.82721 c 0,-0.0301 0.406642,-0.0543 0.911753,-0.0543 z" /><path
                 id="rect3-02-8"
                 style="stroke-width:0.226351;stroke-linecap:round;stroke-linejoin:round;paint-order:markers stroke fill"
                 d="m 69.526171,113.7168 c 0.505112,0 0.911754,0.0242 0.911754,0.0543 v 1.82721 c 0,0.0301 -0.406642,0.0543 -0.911754,0.0543 -0.505111,0 -0.911753,-0.0242 -0.911753,-0.0543 v -1.82721 c 0,-0.0301 0.406642,-0.0543 0.911753,-0.0543 z" /><path
                 id="rect3-02-89"
                 style="stroke-width:0.226351;stroke-linecap:round;stroke-linejoin:round;paint-order:markers stroke fill"
                 d="m 66.270381,116.42995 c 0.505111,0 0.911753,0.0242 0.911753,0.0543 v 1.82721 c 0,0.0301 -0.406642,0.0543 -0.911753,0.0543 -0.505112,0 -0.911754,-0.0242 -0.911754,-0.0543 v -1.82721 c 0,-0.0301 0.406642,-0.0543 0.911754,-0.0543 z" /><path
                 id="rect3-02-2"
                 style="stroke-width:0.226351;stroke-linecap:round;stroke-linejoin:round;paint-order:markers stroke fill"
                 d="m 73.234149,116.02298 c 0.505111,0 0.911753,0.0242 0.911753,0.0543 v 1.82721 c 0,0.0301 -0.406642,0.0543 -0.911753,0.0543 -0.505112,0 -0.911754,-0.0242 -0.911754,-0.0543 v -1.82721 c 0,-0.0301 0.406642,-0.0543 0.911754,-0.0543 z" /><path
                 id="rect3-0"
                 style="stroke-width:0.226351;stroke-linecap:round;stroke-linejoin:round;paint-order:markers stroke fill"
                 d="m 66.13473,110.68711 c 0.505111,0 0.911754,0.0242 0.911754,0.0543 v 1.82721 c 0,0.0301 -0.406643,0.0543 -0.911754,0.0543 -0.505111,0 -0.911753,-0.0242 -0.911753,-0.0543 v -1.82721 c 0,-0.0301 0.406642,-0.0543 0.911753,-0.0543 z" /><path
                 id="rect3-4"
                 style="stroke-width:0.226351;stroke-linecap:round;stroke-linejoin:round;paint-order:markers stroke fill"
                 d="m 69.707049,104.76339 c 0.505112,0 0.911754,0.0242 0.911754,0.0543 v 1.82721 c 0,0.0301 -0.406642,0.0543 -0.911754,0.0543 -0.505111,0 -0.911753,-0.0242 -0.911753,-0.0543 v -1.82721 c 0,-0.0301 0.406642,-0.0543 0.911753,-0.0543 z" /><path
                 id="rect3"
                 style="stroke-width:0.226351;stroke-linecap:round;stroke-linejoin:round;paint-order:markers stroke fill"
                 d="m 66.128115,101.95451 c 0.505112,0 0.911754,0.0242 0.911754,0.0543 v 1.82721 c 0,0.0301 -0.406642,0.0543 -0.911754,0.0543 -0.505111,0 -0.911753,-0.0242 -0.911753,-0.0543 v -1.82721 c 0,-0.0301 0.406642,-0.0543 0.911753,-0.0543 z" /></g><g
               id="g7"
               style="stroke-width:0.941154"
               transform="translate(0.31673267,-2.1958716)"><g
                 id="text4"
                 style="font-weight:bold;font-size:17.2273px;line-height:0.1;font-family:Arial;-inkscape-font-specification:'Arial, Bold';text-align:center;letter-spacing:-1.68613px;text-anchor:middle;fill:#0d4e8c;stroke-width:0.126113;stroke-linecap:round;stroke-linejoin:round;paint-order:markers stroke fill"
                 transform="matrix(1.5091156,0,0,1.4761643,-20.084738,-59.512452)"
                 aria-label="FACILITAJ"><path
                   style="font-weight:normal;font-family:Bahnschrift;-inkscape-font-specification:'Bahnschrift, Normal';fill:#000000;stroke-width:0.126113"
                   d="m 76.09809,117.57844 h 1.716 v 12.23071 h -1.716 z m 0.841177,5.45083 h 5.930296 v 1.63188 h -5.930296 z m 0,-5.45083 h 6.85559 v 1.63188 h -6.85559 z m 9.59405,0 h 1.463648 l 4.508707,12.23071 h -1.850588 l -3.389943,-9.867 -3.389942,9.867 H 82.02461 Z m -2.431001,7.91547 h 6.435003 v 1.63189 h -6.435003 z m 11.898876,4.44142 q -1.270177,0 -2.237531,-0.56359 -0.958941,-0.56359 -1.488883,-1.59824 -0.529941,-1.03464 -0.529941,-2.39735 v -3.3563 q 0,-1.3627 0.529941,-2.39735 0.529942,-1.03465 1.488883,-1.59823 0.967354,-0.57201 2.237531,-0.57201 1.051471,0 1.934706,0.45424 0.883236,0.44582 1.472056,1.27018 0.597236,0.82435 0.807526,1.90947 v 0 h -1.758052 v 0 q -0.159824,-0.572 -0.538353,-1.01783 -0.370118,-0.45423 -0.874824,-0.69817 -0.504706,-0.24394 -1.043059,-0.24394 -0.748648,0 -1.312236,0.3617 -0.563589,0.36171 -0.874824,1.01783 -0.311236,0.6477 -0.311236,1.51411 v 3.3563 q 0,0.858 0.311236,1.51412 0.311235,0.65612 0.874824,1.01782 0.563588,0.3533 1.312236,0.3533 0.546764,0 1.043059,-0.22712 0.504706,-0.22712 0.874824,-0.67294 0.378529,-0.44583 0.538353,-1.05989 v 0 h 1.758052 v 0 q -0.21029,1.08512 -0.807526,1.90948 -0.597232,0.82435 -1.480468,1.27858 -0.883235,0.44583 -1.926294,0.44583 z m 6.515338,-0.12618 h -1.716 v -12.23071 h 1.716 z m 1.34211,-12.23071 h 1.716 v 12.23071 h -1.716 z m 0.858,10.59883 h 6.99859 v 1.63188 h -6.99859 z m 9.04728,1.63188 h -1.716 v -12.23071 h 1.716 z m 3.78993,-11.22971 h 1.716 v 11.22971 h -1.716 z m -3.45723,-1.001 h 8.63047 v 1.63188 h -8.63047 z m 11.2007,0 h 1.46365 l 4.5087,12.23071 h -1.85059 l -3.38994,-9.867 -3.38994,9.867 h -1.85059 z m -2.431,7.91547 h 6.435 v 1.63189 h -6.435 z"
                   id="path5" /><path
                   style="font-weight:normal;font-family:Bahnschrift;-inkscape-font-specification:'Bahnschrift, Normal';fill:#1752f0;fill-opacity:1;stroke-width:0.126113"
                   d="m 134.10588,130.07433 q -0.97576,0 -1.79171,-0.39535 -0.81594,-0.39536 -1.32906,-1.11036 l 1.40477,-1.00941 q 0.23553,0.41218 0.68135,0.63929 0.44583,0.22712 1.03465,0.22712 1.001,0 1.54777,-0.62247 0.55517,-0.62247 0.55517,-1.74965 v -8.33606 h 1.716 v 8.34448 q 0,1.27017 -0.44582,2.17023 -0.44582,0.90006 -1.30382,1.37112 -0.858,0.47106 -2.0693,0.47106 z"
                   id="path6" /></g></g><path
               id="path10"
               style="font-variation-settings:'wght' 700;fill:none;stroke:#124ff0;stroke-width:2.25877;stroke-linecap:round;stroke-linejoin:round;stroke-opacity:0.980392;paint-order:markers stroke fill"
               d="M 102.58376,138.64251 A 31.347919,37.002274 0 0 1 68.10458,156.82504 31.347919,37.002274 0 0 1 43.830963,122.67794 31.347919,37.002274 0 0 1 64.989169,85.75602 31.347919,37.002274 0 0 1 100.87407,99.640964" /><path
               id="path10-8"
               style="font-variation-settings:'wght' 700;fill:none;stroke:#1752f0;stroke-width:3.57638;stroke-linecap:round;stroke-linejoin:round;paint-order:markers stroke fill"
               d="m 94.089137,139.40772 a 24.673519,28.016886 0 0 1 -26.6569,9.14562 24.673519,28.016886 0 0 1 -17.183779,-24.88228 24.673519,28.016886 0 0 1 14.177869,-27.215395 24.673519,28.016886 0 0 1 27.479888,5.118195" /><path
               id="path1"
               style="opacity:0;fill:none;fill-opacity:0.96496;stroke:#000000;stroke-width:0.249404"
               d="m 67.894611,156.69189 a 3.8627808,0.35237187 0 0 1 -4.242965,0.20038 3.8627808,0.35237187 0 0 1 -3.132367,-0.32911 3.8627808,0.35237187 0 0 1 2.770462,-0.3551 3.8627808,0.35237187 0 0 1 4.434741,0.16219" /></g></g></g></g></g></svg>
